<?xml version="1.0" encoding="UTF-8" standalone="no"?> <!-- Created with Vectornator for iOS (http://vectornator.io/) --><!DOCTYPE svg PUBLIC "-//W3C//DTD SVG 1.1//EN" "http://www.w3.org/Graphics/SVG/1.1/DTD/svg11.dtd">
<svg height="100%" style="fill-rule:nonzero;clip-rule:evenodd;stroke-linecap:round;stroke-linejoin:round;" version="1.1" viewBox="0 0 600 100" width="100%" xml:space="preserve" xmlns="http://www.w3.org/2000/svg" xmlns:vectornator="http://vectornator.io" xmlns:xlink="http://www.w3.org/1999/xlink">
<metadata>
<vectornator:setting key="IsTimeLapseWatermarkDisabled" value="false"/>
<vectornator:setting key="UndoHistoryDisabled" value="true"/>
<vectornator:setting key="VNDimensionsVisible" value="true"/>
<vectornator:setting key="VNSnapToGuides" value="true"/>
<vectornator:setting key="WDCMYKEnabledKey" value="false"/>
<vectornator:setting key="WDDisplayWhiteBackground" value="false"/>
<vectornator:setting key="WDDynamicGuides" value="true"/>
<vectornator:setting key="WDGuidesVisible" value="true"/>
<vectornator:setting key="WDIsolateActiveLayer" value="false"/>
<vectornator:setting key="WDOutlineMode" value="false"/>
<vectornator:setting key="WDRulersVisible" value="true"/>
<vectornator:setting key="WDSnapToEdges" value="false"/>
<vectornator:setting key="WDSnapToGrid" value="false"/>
<vectornator:setting key="WDSnapToPoints" value="false"/>
<vectornator:setting key="WDUnits" value="Pixels"/>
</metadata>
<defs/>
<g id="Layer 1" vectornator:layerName="Layer 1">
<path d="M81.204 31C79.649 31.005 78.571 31.142 77.268 31.367C73.42 32.037 72.719 33.444 72.719 36.037L72.719 40L81.719 40L81.719 42L72.377 42L68.027 42C65.391 42 63.084 43.242 62.353 46.219C61.527 49.636 61.49 51.776 62.353 55.344C63.008 58.005 64.451 60 67.088 60L70.72 60L70.72 54.896C70.72 51.93 73.406 49 76.484 49L83.72 49C86.243 49 88.72 47.138 88.72 44.623L88.72 36.037C88.72 33.598 86.961 31.774 84.502 31.365C84.563 31.359 82.746 30.994 81.204 31ZM76.22 35C77.041 35 77.72 35.677 77.72 36.502C77.72 37.335 77.041 38 76.22 38C75.383 38 74.72 37.336 74.72 36.502C74.72 35.68 75.383 35 76.22 35Z" fill="#0277bd" opacity="1"/>
<path d="M80.235 69C81.79 68.995 82.868 68.858 84.171 68.633C88.019 67.963 88.72 66.556 88.72 63.963L88.72 60L79.72 60L79.72 58L89.063 58L93.413 58C96.049 58 98.356 56.758 99.087 53.781C99.913 50.364 99.95 48.224 99.087 44.656C98.431 41.995 96.988 40 94.351 40L90.719 40L90.719 45.104C90.719 48.07 88.033 51 84.955 51L77.719 51C75.196 51 72.719 52.862 72.719 55.377L72.719 63.963C72.719 66.402 74.478 68.226 76.937 68.635C76.876 68.641 78.693 69.006 80.235 69ZM85.22 65C84.399 65 83.72 64.323 83.72 63.498C83.72 62.665 84.399 62 85.22 62C86.057 62 86.72 62.664 86.72 63.498C86.72 64.32 86.056 65 85.22 65Z" fill="#ffc107" opacity="1"/>
<path d="M152.011 68L152.011 32L188.011 32L188.011 68L152.011 68Z" fill="#ffd600" opacity="1"/>
<path d="M361.271 50.169L363.573 46.2789C363.665 46.0852 363.677 45.8638 363.607 45.6611L359.046 32.6372C358.908 32.2416 358.489 32.0161 358.082 32.1146L344.679 35.3706C344.423 35.4333 344.212 35.6148 344.114 35.859L342.687 39.4178L338.341 39.4178C338.113 39.4178 337.896 39.513 337.74 39.6799L327.942 50.2618C327.64 50.5882 327.656 51.0962 327.979 51.403L338.253 61.171C338.406 61.3151 338.608 61.3956 338.817 61.3956L343.503 61.3956L344.931 64.9544C345.036 65.2173 345.271 65.4062 345.55 65.4542L359.805 67.8962C359.851 67.9043 359.898 67.9084 359.944 67.9084C360.321 67.9084 360.658 67.6471 360.741 67.2678L363.633 54.0575C363.678 53.8532 363.642 53.6391 363.532 53.46L361.271 50.169ZM342.687 39.4178L354.195 37.3152L348.139 49.1857L334.394 49.1857L342.687 39.4178ZM343.503 61.3956L334.394 52.4417L348.139 52.4417L355.283 63.1596L343.503 61.3956ZM358.252 61.3118L351.405 50.8137L357.392 38.9432L361.271 50.1698L358.252 61.3118Z" fill="#ffffff" opacity="1"/>
<path d="M175.549 58.947C176.241 60.071 176.993 61.148 178.586 61.148C179.924 61.148 180.626 60.483 180.626 59.563C180.626 58.462 179.9 58.071 178.428 57.43L177.621 57.086C175.292 56.098 173.743 54.86 173.743 52.245C173.743 49.835 175.588 48.001 178.471 48.001C180.524 48.001 181.999 48.712 183.063 50.574L180.549 52.181C179.996 51.193 179.398 50.804 178.471 50.804C177.525 50.804 176.926 51.401 176.926 52.181C176.926 53.145 177.526 53.535 178.911 54.132L179.718 54.476C182.463 55.645 184.011 56.839 184.011 59.523C184.011 62.415 181.727 64 178.661 64C175.662 64 173.959 62.495 173.011 60.632L175.549 58.947ZM163.963 59.029C164.469 59.935 165.238 60.632 166.344 60.632C167.402 60.632 168.011 60.214 168.011 58.589L168.011 48L171.344 48L171.344 59.101C171.344 62.468 169.391 64 166.539 64C163.962 64 162.102 62.254 161.344 60.632L163.963 59.029Z" fill="#000001" opacity="1"/>
<path d="M446.833 34.4986L440.312 32.028C439.879 31.8638 439.396 31.9505 439.032 32.2591L424.331 44.741L416.894 39.768C416.513 39.5111 416.043 39.4761 415.634 39.6753L412.888 41.0055C412.389 41.2473 412.066 41.7946 412.066 42.3982L412.066 57.6014C412.066 58.205 412.389 58.7523 412.888 58.994L415.634 60.3243C416.042 60.5234 416.511 60.487 416.894 60.2315L424.33 55.2586L439.031 67.7404C439.274 67.9472 439.569 68.0536 439.866 68.0536C440.015 68.0536 440.165 68.0262 440.31 67.9715L446.832 65.501C447.388 65.2912 447.761 64.7135 447.761 64.0628L447.761 35.9368C447.761 35.2861 447.388 34.7084 446.833 34.4986ZM417.558 52.6847L417.558 47.3149L421.57 49.9998L417.558 52.6847ZM439.524 57.1711L429.966 49.9998L439.524 42.8284L439.524 57.1711Z" fill="#ffffff" opacity="1"/>
</g>
<g id="Layer 2" vectornator:layerName="Layer 2">
<path d="M239.283 32.3632L275.39 32.3632L275.39 68L239.283 68L239.283 32.3632Z" fill="#0083ff" opacity="1"/>
<g opacity="1">
<path d="M252.254 54.8793L248.564 54.8793L248.564 51.5853L260.192 51.5853L260.192 54.8793L256.502 54.8793L256.502 64.1853L252.254 64.1853L252.254 54.8793Z" fill="#ffffff" opacity="1"/>
<path d="M265.988 64.4733C264.944 64.4733 263.927 64.3563 262.937 64.1223C261.947 63.8883 261.134 63.5733 260.498 63.1773L261.866 60.0813C262.466 60.4293 263.138 60.7083 263.882 60.9183C264.626 61.1283 265.34 61.2333 266.024 61.2333C266.612 61.2333 267.032 61.1763 267.284 61.0623C267.536 60.9483 267.662 60.7773 267.662 60.5493C267.662 60.2853 267.497 60.0873 267.167 59.9553C266.837 59.8233 266.294 59.6793 265.538 59.5233C264.566 59.3193 263.756 59.1003 263.108 58.8663C262.46 58.6323 261.896 58.2483 261.416 57.7143C260.936 57.1803 260.696 56.4573 260.696 55.5453C260.696 54.7533 260.918 54.0333 261.362 53.3853C261.806 52.7373 262.469 52.2273 263.351 51.8553C264.233 51.4833 265.304 51.2973 266.564 51.2973C267.428 51.2973 268.277 51.3903 269.111 51.5763C269.945 51.7623 270.68 52.0353 271.316 52.3953L270.038 55.4733C268.802 54.8493 267.632 54.5373 266.528 54.5373C265.436 54.5373 264.89 54.8013 264.89 55.3293C264.89 55.5813 265.052 55.7703 265.376 55.8963C265.7 56.0223 266.234 56.1573 266.978 56.3013C267.938 56.4813 268.748 56.6883 269.408 56.9223C270.068 57.1563 270.641 57.5373 271.127 58.0653C271.613 58.5933 271.856 59.3133 271.856 60.2253C271.856 61.0173 271.634 61.7343 271.19 62.3763C270.746 63.0183 270.083 63.5283 269.201 63.9063C268.319 64.2843 267.248 64.4733 265.988 64.4733Z" fill="#ffffff" opacity="1"/>
</g>
<path d="M538.28 42.5726C538.28 41.9711 538.152 41.4288 537.886 40.9751C537.63 40.5215 537.245 40.1468 536.732 39.851C532.472 37.3955 528.202 34.9401 523.942 32.4846C522.788 31.8239 521.684 31.8436 520.54 32.5142C518.844 33.5102 510.344 38.3816 507.819 39.851C506.774 40.4525 506.271 41.3795 506.271 42.5825L506.271 57.4138C506.271 58.0055 506.399 58.5281 506.646 58.9818C506.902 59.4452 507.296 59.8397 507.819 60.1454C510.353 61.6147 518.844 66.4763 520.54 67.4821C521.684 68.1526 522.798 68.1822 523.942 67.5117C528.202 65.0464 532.472 62.6008 536.732 60.1454C537.265 59.8397 537.649 59.4551 537.906 58.9818C538.152 58.5281 538.28 58.0055 538.28 57.4138L538.28 42.5726Z" fill="#9a4993" opacity="1"/>
<path d="M522.315 49.939L506.626 58.9719C506.882 59.4354 507.277 59.8298 507.799 60.1355C510.334 61.6048 518.824 66.4664 520.52 67.4723C521.664 68.1429 522.779 68.1724 523.922 67.5018C528.183 65.0365 532.452 62.591 536.713 60.1355C537.245 59.8298 537.63 59.4452 537.886 58.9719L522.315 49.939Z" fill="#6a1577" opacity="1"/>
<path d="M517.67 52.6114C518.588 54.2089 520.303 55.2838 522.266 55.2838C524.248 55.2838 525.974 54.1991 526.881 52.5818L522.315 49.939L517.67 52.6114Z" fill="#6a1577" opacity="1"/>
<path d="M538.28 42.5726C538.28 41.9711 538.152 41.4288 537.886 40.9751L522.315 49.939L537.906 58.9719C538.152 58.5183 538.28 57.9956 538.28 57.404L538.28 42.5726Z" fill="#813084" opacity="1"/>
<g opacity="1">
<path d="M526.881 52.5818C525.974 54.1892 524.248 55.2838 522.266 55.2838C520.294 55.2838 518.578 54.2089 517.67 52.6114C517.227 51.8324 516.97 50.9448 516.97 49.9883C516.97 47.0595 519.337 44.6928 522.266 44.6928C524.218 44.6928 525.924 45.7578 526.841 47.3356L531.466 44.6731C529.622 41.4978 526.191 39.3579 522.256 39.3579C516.379 39.3579 511.626 44.1209 511.626 49.9883C511.626 51.9112 512.138 53.7257 513.036 55.2838C514.87 58.469 518.321 60.6187 522.266 60.6187C526.22 60.6187 529.672 58.4591 531.506 55.2542L526.881 52.5818ZM532.729 47.4737L531.673 47.4737L531.673 52.572L532.729 52.572L532.729 47.4737ZM535.066 47.4737L534.011 47.4737L534.011 52.572L535.066 52.572L535.066 47.4737Z" fill="#ffffff" opacity="1"/>
<path d="M535.924 48.3316L530.825 48.3316L530.825 49.3868L535.924 49.3868L535.924 48.3316ZM535.924 50.6589L530.825 50.6589L530.825 51.714L535.924 51.714L535.924 50.6589Z" fill="#ffffff" opacity="1"/>
</g>
</g>
</svg>
