<?xml version="1.0" encoding="UTF-8" standalone="no"?> <!-- Created with Vectornator for iOS (http://vectornator.io/) --><!DOCTYPE svg PUBLIC "-//W3C//DTD SVG 1.1//EN" "http://www.w3.org/Graphics/SVG/1.1/DTD/svg11.dtd">
<svg height="100%" style="fill-rule:nonzero;clip-rule:evenodd;stroke-linecap:round;stroke-linejoin:round;" version="1.1" viewBox="0 0 600 100" width="100%" xml:space="preserve" xmlns="http://www.w3.org/2000/svg" xmlns:vectornator="http://vectornator.io" xmlns:xlink="http://www.w3.org/1999/xlink">
<metadata>
<vectornator:setting key="IsTimeLapseWatermarkDisabled" value="false"/>
<vectornator:setting key="UndoHistoryDisabled" value="true"/>
<vectornator:setting key="VNDimensionsVisible" value="true"/>
<vectornator:setting key="VNSnapToGuides" value="true"/>
<vectornator:setting key="WDCMYKEnabledKey" value="false"/>
<vectornator:setting key="WDDisplayWhiteBackground" value="false"/>
<vectornator:setting key="WDDynamicGuides" value="true"/>
<vectornator:setting key="WDGuidesVisible" value="true"/>
<vectornator:setting key="WDIsolateActiveLayer" value="false"/>
<vectornator:setting key="WDOutlineMode" value="false"/>
<vectornator:setting key="WDRulersVisible" value="true"/>
<vectornator:setting key="WDSnapToEdges" value="false"/>
<vectornator:setting key="WDSnapToGrid" value="false"/>
<vectornator:setting key="WDSnapToPoints" value="false"/>
<vectornator:setting key="WDUnits" value="Pixels"/>
</metadata>
<defs/>
<g id="Layer 1" vectornator:layerName="Layer 1">
<path d="M172.225 48.2L156.783 32.7579C156.309 32.2842 155.646 32 154.983 32L154.983 32C154.32 32 153.657 32.2842 153.183 32.7579L149.867 36.0737L153.751 39.9579C154.13 39.7684 154.509 39.6737 154.983 39.6737C156.593 39.6737 157.825 40.9053 157.825 42.5158C157.825 42.9895 157.73 43.3684 157.541 43.7474L161.33 47.5368C161.709 47.3474 162.088 47.2526 162.562 47.2526C164.172 47.2526 165.404 48.4842 165.404 50.0947C165.404 51.7053 164.172 52.9368 162.562 52.9368C160.951 52.9368 159.72 51.7053 159.72 50.0947C159.72 49.6211 159.814 49.2421 160.004 48.8632L156.214 45.0737C156.12 45.0737 156.025 45.1684 155.93 45.1684L155.93 55.0211C157.067 55.4 157.825 56.4421 157.825 57.6737C157.825 59.2842 156.593 60.5158 154.983 60.5158C153.372 60.5158 152.141 59.2842 152.141 57.6737C152.141 56.4421 152.899 55.4 154.036 55.0211L154.036 45.0737C152.899 44.6947 152.141 43.6526 152.141 42.4211C152.141 41.9474 152.236 41.5684 152.425 41.1895L148.541 37.3053L137.741 48.2C137.267 48.6737 136.983 49.3368 136.983 50C136.983 50.6632 137.267 51.3263 137.741 51.8L153.183 67.2421L153.183 67.2421C153.657 67.7158 154.32 68 154.983 68C155.646 68 156.309 67.7158 156.783 67.2421L172.225 51.8C172.699 51.3263 172.983 50.6632 172.983 50C172.983 49.3368 172.699 48.6737 172.225 48.2Z" fill="#f4511e" opacity="1"/>
<path d="M270.845 34.0738C266.846 28.3125 258.882 26.6244 253.158 30.2574L243.066 36.7159C240.314 38.4407 238.406 41.2663 237.855 44.4589C237.378 47.1377 237.782 49.8899 239.066 52.2752C238.186 53.5962 237.599 55.0641 237.342 56.6053C236.755 59.8713 237.525 63.2474 239.433 65.9262C243.47 71.6875 251.396 73.3756 257.121 69.7426L267.213 63.3208C269.965 61.596 271.873 58.7704 272.423 55.5778C272.9 52.899 272.497 50.1468 271.212 47.7615C272.093 46.4405 272.68 44.9726 272.937 43.4314C273.561 40.1287 272.79 36.7526 270.845 34.0738" fill="#ff3e00" opacity="1"/>
<path d="M252.167 66.4767C248.901 67.3207 245.488 66.0363 243.58 63.2841C242.406 61.6694 241.965 59.6511 242.296 57.6695C242.369 57.3393 242.443 57.0457 242.516 56.7154L242.699 56.1283L243.213 56.4953C244.424 57.376 245.745 58.0365 247.176 58.4769L247.543 58.5869L247.507 58.9539C247.47 59.4677 247.617 60.0181 247.91 60.4585C248.497 61.3025 249.525 61.7061 250.516 61.4493C250.736 61.3759 250.956 61.3025 251.14 61.1924L261.194 54.7705C261.708 54.4403 262.038 53.9632 262.148 53.3761C262.259 52.7889 262.112 52.1651 261.781 51.688C261.194 50.844 260.167 50.4771 259.176 50.7339C258.956 50.8073 258.736 50.8807 258.552 50.9908L254.699 53.4495C254.075 53.8531 253.378 54.1467 252.644 54.3302C249.378 55.1742 245.965 53.8898 244.057 51.1376C242.92 49.5229 242.443 47.5046 242.809 45.523C243.14 43.6148 244.314 41.8901 245.965 40.8626L256.057 34.4408C256.681 34.0371 257.378 33.7435 258.112 33.5233C261.378 32.6793 264.791 33.9637 266.699 36.7159C267.873 38.3306 268.313 40.3489 267.983 42.3305C267.91 42.6607 267.836 42.9543 267.726 43.2846L267.543 43.8717L267.029 43.5047C265.818 42.624 264.497 41.9635 263.066 41.5231L262.699 41.4131L262.736 41.0461C262.772 40.5323 262.625 39.9819 262.332 39.5415C261.745 38.6975 260.717 38.3306 259.726 38.5874C259.506 38.6608 259.286 38.7342 259.103 38.8443L249.048 45.2662C248.534 45.5964 248.204 46.0735 248.094 46.6606C247.984 47.2478 248.13 47.8716 248.461 48.3487C249.048 49.1927 250.075 49.5596 251.066 49.3028C251.286 49.2294 251.507 49.156 251.69 49.0459L255.543 46.5872C256.167 46.1836 256.864 45.89 257.598 45.6698C260.864 44.8258 264.277 46.1102 266.185 48.8624C267.359 50.4771 267.8 52.4953 267.469 54.477C267.139 56.3852 265.965 58.1099 264.314 59.1374L254.222 65.5592C253.598 65.9629 252.901 66.2565 252.167 66.4767" fill="#ffffff" opacity="1"/>
<path d="M343.19 37.2477C336.022 37.4853 333.891 42.8267 333.403 45.7204C334.039 44.6478 336.044 42.2943 338.996 42.2943C342.436 42.2943 345.055 46.2992 346.653 47.5492C348.594 49.068 352.495 51.0733 357.617 49.4475C361.701 48.1511 363.595 43.6292 364.009 41.484C362.034 44.2851 359.037 45.9676 355.331 43.9842C352.778 42.6183 350.87 36.9931 343.19 37.2477Z" fill="#07b6d5" opacity="1"/>
<path d="M333.047 49.9567C325.879 50.1944 323.748 55.5357 323.26 58.4294C323.896 57.3568 325.901 55.0034 328.853 55.0034C332.293 55.0034 334.912 59.0082 336.51 60.2583C338.451 61.777 342.352 63.7823 347.474 62.1565C351.558 60.8602 353.452 56.3382 353.866 54.1931C351.891 56.9942 348.894 58.6766 345.188 56.6932C342.636 55.3274 340.727 49.7021 333.047 49.9567Z" fill="#07b6d5" opacity="1"/>
<path d="M460.247 32C459.6 33.1897 453.288 36.7434 451.97 37.9002C450.844 38.8884 449.723 39.8811 448.622 40.8931C445.684 43.5949 443.485 46.8844 441.368 50.1283C440.546 51.3886 440.261 52.9962 439.322 54.1473C438.381 55.3017 433.941 55.508 432.627 55.601C438.482 44.8327 448.876 37.2277 460.247 32Z" fill="#bc2b73" opacity="1"/>
<path d="M463.036 35.848C463.036 37.6923 460.732 40.6623 459.689 42.2613C454.579 50.0919 448.641 58.2857 439.415 62.5273C439.145 61.7803 439.672 60.387 439.88 59.62C440.173 58.5422 440.348 56.937 441.089 56.0285C442.476 54.3286 446.552 53.0146 448.436 51.6675C454.157 47.5763 459.731 41.9265 463.036 35.848Z" fill="#bc2b73" opacity="1"/>
<path d="M463.036 32.5131C463.036 34.2717 460.161 37.3347 459.131 38.7553C455.015 44.4315 449.171 51.2143 441.833 53.4632C446.525 44.8358 453.346 36.9681 463.036 32.5131Z" fill="#bc2b73" opacity="1"/>
<path d="M438.764 56.3705C439.041 57.1342 438.24 58.8971 438.02 59.7055C437.694 60.9069 437.939 62.9202 437.09 63.8955C435.671 65.5272 430.221 67.5873 427.977 68C427.353 66.8535 434.673 62.5055 434.673 61.4157C434.673 60.8395 433.567 60.1128 432.999 60.5606C432.107 61.263 432.037 62.4802 431.046 63.4679C430.703 63.8089 430.366 64.1536 430.023 64.4941C429.44 65.0726 427.941 67.0594 427.047 67.0594C426.809 66.4037 430.726 57.7706 431.511 57.4822C433.675 56.686 436.488 57.0682 438.764 56.3705Z" fill="#bc2b73" opacity="1"/>
</g>
</svg>
